<svg width="400" height="400" xmlns="http://www.w3.org/2000/svg"><path id="svg_1" stroke-width="20" stroke="#000" fill="#fff" d="M25 100a75 75 0 1 1 150 0 75 75 0 1 1-150 0" style="animation:LvaqBhFD_draw_2 16200ms linear 0ms infinite,LvaqBhFD_fade 16200ms linear 0ms infinite" stroke-dasharray="472 474" stroke-dashoffset="473"/><path id="svg_5" stroke-width="20" stroke="#000" fill="#fff" d="M225 300a75 75 0 1 1 150 0 75 75 0 1 1-150 0" style="animation:LvaqBhFD_draw_3 16200ms linear 0ms infinite,LvaqBhFD_fade 16200ms linear 0ms infinite" stroke-dasharray="472 474" stroke-dashoffset="473"/><path id="svg_6" stroke-width="20" stroke="#000" fill="#fff" d="M25 300a75 75 0 1 1 150 0 75 75 0 1 1-150 0" style="animation:LvaqBhFD_draw_4 16200ms linear 0ms infinite,LvaqBhFD_fade 16200ms linear 0ms infinite" stroke-dasharray="472 474" stroke-dashoffset="473"/><path id="svg_7" stroke-width="20" stroke="#000" fill="#fff" d="M225 100a75 75 0 1 1 150 0 75 75 0 1 1-150 0" style="animation:LvaqBhFD_draw_5 16200ms linear 0ms infinite,LvaqBhFD_fade 16200ms linear 0ms infinite" stroke-dasharray="472 474" stroke-dashoffset="473"/><style data-made-with="vivus-instant">@keyframes LvaqBhFD_draw{to{stroke-dashoffset:0}}@keyframes LvaqBhFD_fade{0%,99.38271604938272%{stroke-opacity:1}to{stroke-opacity:0}}@keyframes LvaqBhFD_draw_0{.6172839506172839%{stroke-dashoffset:1609}15.88960393846777%,to{stroke-dashoffset:0}}@keyframes LvaqBhFD_draw_1{15.88960393846777%{stroke-dashoffset:401}19.695819174718885%,to{stroke-dashoffset:0}}@keyframes LvaqBhFD_draw_2{19.695819174718885%{stroke-dashoffset:473}24.185444627952744%,to{stroke-dashoffset:0}}@keyframes LvaqBhFD_draw_3{24.18544462795274%{stroke-dashoffset:473}28.675070081186604%,to{stroke-dashoffset:0}}@keyframes LvaqBhFD_draw_4{28.675070081186604%{stroke-dashoffset:473}33.16469553442046%,to{stroke-dashoffset:0}}@keyframes LvaqBhFD_draw_5{33.16469553442046%{stroke-dashoffset:473}37.65432098765432%,to{stroke-dashoffset:0}}</style></svg>